<?xml version="1.0" standalone="no"?>
<!DOCTYPE svg PUBLIC "-//W3C//DTD SVG 20010904//EN"
 "http://www.w3.org/TR/2001/REC-SVG-20010904/DTD/svg10.dtd">
<svg version="1.0" xmlns="http://www.w3.org/2000/svg"
 width="400.000000pt" height="500.000000pt" viewBox="0 0 400.000000 500.000000"
 preserveAspectRatio="xMidYMid meet">

<g transform="translate(0.000000,500.000000) scale(0.100000,-0.100000)"
fill="#000000" stroke="none">
<path d="M2551 4971 c-13 -8 -12 -23 6 -109 26 -123 75 -217 172 -328 71 -82
96 -124 131 -217 55 -147 122 -230 304 -376 100 -81 205 -195 191 -209 -8 -8
-108 39 -157 75 -26 19 -81 48 -122 65 -42 17 -76 36 -76 43 0 7 -23 43 -50
80 -28 38 -91 150 -140 249 -75 152 -100 193 -155 254 -73 79 -159 136 -269
177 -38 14 -82 25 -97 23 l-29 -3 68 -135 c37 -74 90 -169 118 -210 28 -41 67
-100 86 -130 19 -31 81 -98 136 -150 56 -52 102 -97 102 -101 0 -8 -101 6
-133 19 -16 7 -45 12 -65 12 -20 0 -42 4 -47 8 -6 4 -36 50 -68 102 -151 250
-239 374 -313 439 -68 60 -226 148 -288 160 -54 11 -304 33 -396 35 -87 2 -80
-16 58 -153 175 -174 277 -239 482 -306 151 -50 171 -60 318 -172 69 -52 132
-97 139 -100 35 -14 4 -18 -89 -12 -135 9 -173 17 -195 41 -26 28 -80 54 -133
63 -25 4 -52 13 -60 19 -8 7 -64 42 -123 77 -59 35 -154 104 -210 152 -132
115 -169 140 -283 193 -148 70 -250 95 -374 96 -91 0 -205 -14 -218 -26 -10
-10 23 -47 95 -107 43 -35 106 -89 139 -121 34 -31 81 -66 104 -78 22 -11 65
-36 93 -54 83 -53 211 -87 377 -101 47 -4 147 -23 223 -41 76 -19 163 -34 193
-34 53 0 112 -18 142 -42 23 -20 -11 -26 -133 -27 -69 -1 -144 -9 -200 -21
-49 -11 -122 -25 -162 -31 -70 -12 -72 -12 -101 13 -17 14 -50 35 -74 46 -223
105 -258 125 -318 177 -70 60 -159 109 -310 171 l-95 39 -155 -1 c-110 -1
-180 -7 -240 -20 -78 -18 -85 -21 -85 -43 0 -46 248 -213 396 -267 25 -9 100
-20 174 -25 151 -9 239 -26 385 -74 58 -19 125 -39 150 -46 37 -9 41 -13 25
-19 -11 -4 -48 -19 -82 -33 l-63 -25 -30 28 c-38 35 -149 80 -215 87 -52 5
-155 -23 -328 -89 l-79 -30 24 -25 c34 -37 70 -53 135 -59 50 -5 76 0 186 35
81 26 147 41 179 41 28 0 48 -3 45 -6 -3 -4 -49 -26 -101 -49 -52 -24 -114
-57 -138 -74 -24 -17 -66 -37 -94 -46 -28 -8 -69 -28 -92 -45 -23 -16 -44 -30
-46 -30 -2 0 -13 20 -25 45 -27 57 -64 76 -144 77 -99 0 -216 -41 -262 -92
-20 -22 -20 -22 0 -37 15 -11 35 -13 80 -8 33 3 92 0 130 -6 39 -6 94 -12 123
-13 28 0 52 -4 52 -7 0 -8 -110 -89 -121 -89 -4 0 -34 7 -66 15 -72 19 -196
19 -257 1 -65 -20 -128 -63 -124 -84 3 -13 24 -20 93 -31 98 -16 169 -7 254
30 58 25 63 18 9 -14 -49 -28 -82 -61 -77 -76 2 -6 24 7 49 29 25 22 48 40 52
40 4 0 4 -46 1 -103 -7 -121 3 -155 40 -135 32 17 44 33 93 134 47 97 55 148
30 195 -13 26 -12 28 58 86 70 59 133 99 142 90 3 -3 -11 -14 -30 -26 -53 -33
-83 -75 -106 -148 -34 -110 -25 -218 24 -278 16 -20 16 -20 36 4 11 13 20 38
20 56 0 41 36 139 96 258 26 50 52 115 58 142 l11 50 115 57 c63 31 117 54
119 52 2 -2 -21 -30 -50 -62 -32 -34 -74 -99 -103 -154 -48 -94 -49 -97 -44
-168 3 -39 10 -76 17 -83 18 -18 58 11 123 88 51 60 68 92 119 218 32 82 59
159 59 172 0 12 6 28 14 34 29 24 191 72 274 80 48 6 140 21 204 35 65 14 130
26 145 25 l28 0 -24 -10 c-13 -5 -78 -23 -145 -40 -189 -48 -344 -130 -405
-214 -48 -66 -125 -381 -104 -420 6 -10 42 13 138 87 194 150 238 191 314 292
38 51 93 113 122 137 29 24 80 72 113 106 65 65 61 64 206 75 8 0 45 -4 81
-11 37 -6 129 -11 205 -10 132 1 194 -9 194 -30 0 -16 -151 -56 -250 -67 -117
-12 -324 -46 -358 -58 -111 -39 -236 -143 -287 -238 -16 -29 -32 -56 -37 -59
-5 -3 -2 -12 7 -19 39 -32 255 49 383 144 48 35 127 82 175 105 49 22 110 56
137 76 35 26 68 39 126 51 79 16 134 40 134 58 0 15 100 -1 226 -38 116 -33
264 -92 264 -105 0 -3 -51 -5 -113 -3 -111 3 -116 2 -257 -43 l-144 -46 -125
7 c-144 7 -207 -2 -318 -48 -55 -23 -84 -42 -120 -82 -50 -54 -109 -153 -99
-163 3 -4 45 1 94 10 48 9 146 21 217 27 404 33 415 36 613 128 70 33 168 74
217 91 50 18 100 39 112 47 21 13 27 12 63 -6 21 -11 45 -20 52 -20 8 0 30
-13 49 -30 20 -16 67 -47 103 -68 90 -52 244 -180 285 -237 18 -25 29 -45 26
-45 -3 0 -42 23 -86 51 -131 84 -292 139 -409 139 -163 0 -323 -86 -397 -212
l-22 -38 21 -11 c13 -7 136 -13 352 -16 330 -5 368 -2 566 34 22 4 30 -3 58
-51 18 -31 37 -56 43 -56 14 0 12 6 -39 88 l-47 77 17 35 c35 69 15 235 -42
355 -79 165 -313 405 -395 405 -27 0 -16 -36 36 -109 28 -40 59 -96 69 -124
28 -82 107 -260 151 -343 22 -42 38 -78 36 -80 -2 -2 -24 15 -48 37 -24 23
-78 63 -119 90 -155 99 -150 95 -150 138 0 47 -21 99 -83 203 -25 42 -48 86
-52 97 -3 12 -33 57 -65 100 -93 126 -105 148 -144 286 -45 155 -87 259 -127
314 -43 60 -169 156 -262 200 -100 48 -118 53 -136 42z m158 -80 c48 -25 123
-81 179 -135 66 -63 107 -155 182 -415 24 -82 29 -91 113 -206 33 -44 69 -100
81 -125 12 -25 40 -76 63 -115 44 -77 79 -162 70 -171 -3 -3 -17 16 -31 43
-27 52 -113 140 -217 221 -84 65 -178 166 -212 226 -14 25 -38 77 -53 114 -42
107 -60 137 -129 216 -105 120 -160 231 -180 364 l-7 42 52 -20 c28 -11 68
-29 89 -39z m-1019 -190 c185 -13 220 -25 377 -128 62 -40 95 -71 138 -129 69
-91 265 -395 265 -410 0 -3 -21 12 -47 33 -78 64 -225 169 -268 191 -22 11
-87 34 -145 52 -191 59 -297 126 -475 303 l-110 109 60 -5 c33 -3 125 -10 205
-16z m760 -83 c67 -32 101 -57 161 -117 80 -81 124 -150 193 -305 51 -112 84
-170 131 -226 20 -23 34 -45 31 -47 -2 -3 -35 4 -73 15 -58 16 -77 28 -133 82
-36 34 -84 78 -108 98 -52 43 -214 284 -289 431 -29 57 -53 108 -53 113 0 16
47 1 140 -44z m-1286 -23 c76 -21 222 -84 291 -126 30 -18 98 -71 152 -118 91
-79 199 -155 300 -212 24 -13 43 -27 43 -30 0 -3 -57 9 -126 27 -69 18 -178
38 -242 45 -160 16 -294 51 -357 93 -28 18 -71 44 -95 56 -24 12 -66 43 -94
69 -28 26 -91 80 -139 121 -48 40 -86 75 -83 77 25 25 255 24 350 -2z m-469
-215 c124 -20 338 -121 435 -205 59 -51 138 -95 300 -168 30 -14 64 -32 75
-40 19 -15 18 -15 -17 -22 -44 -8 -103 4 -248 52 -142 47 -223 63 -372 73
-134 9 -194 24 -293 73 -108 53 -299 187 -285 200 9 8 245 45 295 46 28 0 77
-4 110 -9z m2946 -437 c152 -158 218 -291 227 -454 3 -66 1 -103 -8 -119 l-12
-23 -18 23 c-10 13 -20 46 -23 74 -3 28 -17 91 -31 139 -21 71 -42 111 -108
210 -45 67 -108 157 -140 199 -32 42 -58 82 -58 88 0 20 89 -52 171 -137z
m-1723 -26 c-20 -18 -60 -52 -88 -76 -28 -24 -81 -84 -119 -135 -82 -109 -109
-135 -266 -256 -66 -51 -126 -98 -134 -104 -11 -9 -12 -3 -6 34 17 109 67 284
92 321 55 83 200 160 403 214 73 20 136 38 139 40 2 3 7 2 10 -1 3 -3 -11 -20
-31 -37z m-843 6 c48 -15 125 -50 125 -57 0 -1 -35 -3 -77 -2 -64 0 -97 -6
-185 -37 -119 -41 -184 -47 -248 -21 -70 28 -64 32 150 100 139 44 146 44 235
17z m1310 -79 c-11 -9 -65 -38 -120 -64 -55 -26 -134 -74 -175 -105 -41 -32
-97 -68 -125 -80 -73 -32 -193 -70 -201 -62 -11 11 46 97 103 152 88 87 167
121 353 149 192 30 190 30 165 10z m1331 -176 c22 -43 74 -228 63 -228 -4 0
-13 17 -19 38 -7 20 -27 64 -45 97 -31 57 -125 267 -125 280 0 9 107 -150 126
-187z m-2460 114 c-21 -58 -96 -245 -109 -270 -18 -37 -128 -153 -138 -146
-14 8 -11 136 5 164 56 103 93 160 142 213 83 93 125 109 100 39z m1874 -11
c70 -1 112 -12 98 -26 -3 -3 -48 -21 -99 -39 -52 -18 -154 -61 -227 -95 -167
-78 -246 -98 -431 -111 -176 -11 -330 -28 -390 -41 -24 -5 -45 -8 -47 -6 -2 2
16 32 40 68 52 76 101 110 211 145 73 23 92 25 240 23 l160 -3 110 39 c101 35
190 53 240 49 11 -1 54 -2 95 -3z m-2534 -96 c23 -10 39 -26 49 -49 8 -20 15
-37 15 -39 0 -11 -75 -15 -98 -5 -15 6 -85 14 -157 17 l-130 6 53 28 c100 53
203 69 268 42z m241 -173 c-77 -164 -84 -183 -93 -244 -3 -27 -10 -48 -14 -48
-16 0 -35 68 -34 125 1 94 28 172 78 220 66 62 121 104 124 94 2 -5 -25 -71
-61 -147z m2626 -38 c65 -16 211 -74 203 -81 -2 -3 -20 0 -38 6 -52 17 -244
28 -344 20 -102 -8 -141 -22 -231 -80 -34 -23 -70 -39 -80 -37 -31 6 81 110
159 147 105 50 199 57 331 25z m-3015 -11 c17 -3 32 -9 32 -13 0 -12 -172 -60
-215 -60 -64 0 -145 12 -145 21 0 14 80 51 129 59 44 8 131 5 199 -7z m165
-27 c11 -32 -20 -121 -73 -213 -51 -89 -68 -62 -49 82 11 92 13 96 51 131 44
40 58 40 71 0z m3012 -63 c77 -13 201 -60 190 -71 -2 -2 -22 -8 -46 -13 -96
-22 -256 -29 -512 -22 -263 6 -268 7 -234 23 20 10 49 27 66 39 42 30 98 52
156 62 69 11 271 2 380 -18z"/>
<path d="M50 1281 c0 -7 14 -38 31 -68 24 -42 54 -71 142 -137 62 -46 119 -92
128 -102 10 -11 19 -45 22 -79 6 -76 74 -252 122 -318 45 -61 138 -129 274
-200 115 -61 132 -65 150 -43 18 22 1 48 -93 146 -66 68 -166 196 -209 266 -7
12 102 -25 154 -51 17 -10 39 -36 55 -68 84 -164 256 -387 361 -466 106 -80
359 -167 421 -145 43 15 39 40 -10 65 -24 12 -96 73 -161 136 -66 63 -165 149
-220 192 -56 44 -131 105 -167 136 -36 31 -84 68 -107 82 -24 14 -43 26 -43
28 0 6 109 -24 137 -38 17 -9 70 -23 117 -31 138 -25 134 -23 165 -85 37 -72
193 -208 297 -257 104 -49 349 -94 526 -97 47 -1 90 1 94 5 17 18 -19 52 -133
126 -176 115 -242 140 -432 163 -86 11 -179 26 -206 34 -61 17 -141 58 -138
71 2 5 33 12 70 15 132 12 232 9 321 -10 48 -11 118 -23 155 -26 60 -7 70 -11
80 -33 6 -14 32 -39 57 -56 158 -106 200 -132 267 -163 42 -19 119 -46 172
-60 169 -43 411 -21 411 37 0 11 -24 28 -68 48 -112 52 -181 72 -317 93 -192
28 -260 46 -365 96 l-95 46 70 13 c82 16 126 18 215 8 60 -6 68 -10 102 -49
74 -84 219 -137 415 -151 98 -7 123 0 123 36 0 21 -34 36 -118 50 -35 6 -98
28 -140 50 -91 45 -149 65 -216 75 -61 9 -48 18 65 43 46 11 119 30 161 42
l78 24 27 -26 c38 -35 111 -70 211 -102 105 -33 143 -33 179 -2 25 22 26 26
13 39 -8 8 -69 36 -135 62 -66 26 -122 49 -125 52 -8 8 23 22 109 48 l85 27
47 -22 c26 -13 57 -35 68 -51 22 -30 76 -61 125 -73 52 -13 192 -8 230 8 43
18 45 31 9 49 -47 24 -262 66 -336 67 -21 0 -54 7 -75 16 l-37 15 35 19 c19
11 58 27 85 36 28 9 57 22 65 29 37 29 100 59 162 76 68 19 68 19 89 -2 12
-12 51 -35 87 -52 80 -38 169 -47 224 -24 38 16 66 51 48 62 -15 9 -279 55
-317 55 -55 0 -38 20 60 70 31 17 57 35 57 40 0 6 -2 10 -4 10 -15 0 -133 -69
-155 -91 -14 -14 -48 -33 -74 -42 l-48 -16 7 22 c3 12 12 33 19 47 35 68 26
154 -15 143 -45 -12 -140 -172 -140 -237 0 -19 -6 -38 -12 -43 -12 -7 -169
-72 -176 -73 -2 0 23 33 54 73 69 88 104 159 104 213 0 88 -37 79 -136 -34
-79 -91 -142 -203 -146 -261 -2 -29 -8 -36 -38 -48 -19 -7 -53 -22 -75 -33
-57 -27 -113 -43 -131 -36 -13 5 -4 20 40 66 31 34 59 76 65 96 12 43 -2 89
-23 81 -27 -11 -214 -156 -240 -187 -14 -17 -27 -40 -27 -51 -3 -48 1 -45 -94
-64 -44 -9 -94 -25 -111 -36 -32 -19 -110 -25 -148 -10 -17 6 -15 10 15 27 19
11 70 35 114 53 232 96 334 183 416 356 35 73 37 95 7 95 -32 0 -193 -90 -315
-177 -112 -79 -307 -261 -348 -324 -20 -31 -31 -38 -72 -43 -26 -4 -65 -12
-85 -18 -28 -8 -65 -8 -139 1 -157 19 -158 21 -41 70 139 59 298 180 357 271
26 41 62 147 52 156 -12 12 -53 -6 -111 -49 -90 -68 -202 -133 -323 -187 -146
-65 -223 -112 -290 -177 -54 -52 -57 -53 -117 -55 -75 -2 -60 -3 -186 21 -171
32 -179 41 -52 59 260 38 435 106 563 221 61 54 90 108 64 117 -8 3 -52 -10
-97 -29 -106 -45 -161 -61 -335 -97 -249 -53 -347 -95 -382 -167 -15 -30 -18
-31 -61 -26 -25 2 -67 16 -95 30 -27 14 -74 34 -103 44 -29 10 -67 28 -85 41
-17 13 -41 28 -53 33 -19 9 -104 80 -104 87 0 2 33 2 74 0 134 -6 350 15 406
39 111 48 275 279 197 279 -7 0 -51 -14 -96 -30 -136 -50 -310 -100 -413 -120
-110 -21 -166 -46 -200 -90 l-24 -31 -45 44 c-25 23 -82 69 -128 101 -56 40
-93 74 -112 105 -41 68 -58 88 -59 72z m1070 -88 c0 -16 -62 -100 -107 -146
-27 -27 -65 -58 -86 -68 -42 -22 -185 -38 -363 -42 -127 -2 -152 7 -118 44 29
32 82 55 159 69 118 21 437 115 475 140 18 12 40 13 40 3z m2149 -185 c-12
-23 -49 -79 -83 -123 -33 -44 -61 -81 -62 -83 -1 -1 -16 -7 -33 -12 l-32 -9 7
32 c12 58 61 142 130 223 37 43 72 82 78 86 22 14 18 -68 -5 -114z m231 97 c0
-46 -40 -129 -78 -162 -63 -54 -68 -41 -21 57 33 70 74 130 90 130 5 0 9 -11
9 -25z m-700 -30 c0 -12 -45 -93 -81 -146 -57 -84 -130 -145 -238 -195 -53
-25 -142 -68 -199 -96 -56 -28 -105 -48 -109 -45 -6 6 154 178 207 223 67 56
225 163 310 211 92 51 110 59 110 48z m-625 -106 c-25 -70 -76 -130 -178 -208
-64 -49 -128 -86 -197 -117 -97 -42 -107 -44 -196 -44 -56 0 -94 4 -94 10 0
16 115 96 183 129 34 16 100 46 147 68 89 42 224 123 299 180 24 18 46 32 48
30 1 -2 -4 -23 -12 -48z m-493 -69 c-115 -106 -264 -167 -511 -209 -201 -34
-240 -26 -168 35 54 46 125 72 294 108 211 45 305 71 378 105 33 16 62 26 65
23 3 -2 -23 -30 -58 -62z m2123 30 c65 -12 121 -23 123 -25 11 -11 -50 -28
-99 -28 -41 0 -73 8 -127 33 -74 34 -93 53 -44 45 15 -3 81 -14 147 -25z
m-3330 -80 c73 -61 127 -124 204 -237 23 -35 82 -104 131 -153 121 -122 120
-136 -3 -74 -160 81 -255 153 -307 234 -44 68 -123 290 -103 290 2 0 38 -27
78 -60z m2401 5 c-3 -13 -31 -51 -62 -84 -41 -44 -69 -65 -110 -81 -62 -23
-74 -24 -74 -10 0 17 71 90 119 123 25 17 64 46 85 65 41 37 53 33 42 -13z
m491 -140 c171 -34 223 -47 223 -55 0 -13 -105 -23 -162 -16 -78 11 -158 50
-158 78 0 11 7 10 97 -7z m-320 -92 c68 -26 121 -52 120 -58 -7 -19 -88 -16
-155 6 -101 33 -188 79 -171 90 30 19 88 8 206 -38z m-2122 -17 c33 -21 89
-64 125 -95 36 -31 106 -88 155 -126 50 -38 144 -123 211 -187 66 -65 138
-126 160 -135 l39 -18 -31 -3 c-72 -7 -285 69 -373 133 -62 46 -148 141 -223
246 -50 70 -148 225 -148 234 0 7 2 6 85 -49z m1674 -107 c42 -17 90 -39 108
-50 17 -11 66 -26 108 -34 89 -17 104 -24 82 -36 -21 -12 -229 16 -301 41 -32
11 -74 29 -95 41 -39 24 -91 69 -91 79 0 14 116 -12 189 -41z m-509 -31 c111
-54 171 -71 352 -99 73 -11 150 -24 170 -30 57 -15 208 -80 208 -89 0 -21 -80
-35 -185 -33 -84 1 -131 8 -200 27 -107 31 -248 99 -328 158 -31 24 -76 55
-98 71 -22 15 -37 32 -34 38 4 5 10 9 13 7 4 -2 50 -24 102 -50z m-600 -27
c30 -6 111 -17 181 -26 184 -22 246 -46 432 -169 l108 -71 -38 -3 c-109 -10
-447 49 -546 95 -60 29 -267 194 -267 214 0 5 17 1 38 -10 20 -10 62 -24 92
-30z"/>
</g>
</svg>
